<?xml version="1.0" encoding="UTF-8" standalone="no"?>
<!-- Uploaded to: SVG Repo, www.svgrepo.com, Generator: SVG Repo Mixer Tools -->

<svg
   height="800px"
   width="800px"
   version="1.1"
   id="Layer_1"
   viewBox="0 0 512 512"
   xml:space="preserve"
   sodipodi:docname="icon.svg"
   inkscape:version="1.3.2 (091e20e, 2023-11-25, custom)"
   inkscape:export-filename="icon.png"
   inkscape:export-xdpi="15.36"
   inkscape:export-ydpi="15.36"
   xmlns:inkscape="http://www.inkscape.org/namespaces/inkscape"
   xmlns:sodipodi="http://sodipodi.sourceforge.net/DTD/sodipodi-0.dtd"
   xmlns:xlink="http://www.w3.org/1999/xlink"
   xmlns="http://www.w3.org/2000/svg"
   xmlns:svg="http://www.w3.org/2000/svg"><defs
   id="defs7"><linearGradient
     id="linearGradient8"
     inkscape:collect="always"><stop
       style="stop-color:#ffffff;stop-opacity:1;"
       offset="0"
       id="stop8" /><stop
       style="stop-color:#000000;stop-opacity:0;"
       offset="1"
       id="stop9" /></linearGradient><linearGradient
     inkscape:collect="always"
     xlink:href="#linearGradient8"
     id="linearGradient9"
     x1="82.671389"
     y1="335.99999"
     x2="365.32862"
     y2="335.99999"
     gradientUnits="userSpaceOnUse" /></defs><sodipodi:namedview
   id="namedview7"
   pagecolor="#ffffff"
   bordercolor="#000000"
   borderopacity="0.25"
   inkscape:showpageshadow="2"
   inkscape:pageopacity="0.0"
   inkscape:pagecheckerboard="0"
   inkscape:deskcolor="#d1d1d1"
   inkscape:zoom="0.569375"
   inkscape:cx="302.08562"
   inkscape:cy="299.45115"
   inkscape:window-width="1920"
   inkscape:window-height="1166"
   inkscape:window-x="-11"
   inkscape:window-y="-11"
   inkscape:window-maximized="1"
   inkscape:current-layer="Layer_1" />
<path
   style="fill:#E2E5E7;"
   d="M128,0c-17.6,0-32,14.4-32,32v448c0,17.6,14.4,32,32,32h320c17.6,0,32-14.4,32-32V128L352,0H128z"
   id="path1" />
<path
   style="fill:#B0B7BD;"
   d="M384,128h96L352,0v96C352,113.6,366.4,128,384,128z"
   id="path2" />
<polygon
   style="fill:#CAD1D8;"
   points="480,224 384,128 480,128 "
   id="polygon2" />
<path
   style="fill:#8bc34a;fill-opacity:1"
   d="M416,416c0,8.8-7.2,16-16,16H48c-8.8,0-16-7.2-16-16V256c0-8.8,7.2-16,16-16h352c8.8,0,16,7.2,16,16  V416z"
   id="path3" />

<path
   style="fill:#CAD1D8;"
   d="M400,432H96v16h304c8.8,0,16-7.2,16-16v-16C416,424.8,408.8,432,400,432z"
   id="path7" />
<text
   xml:space="preserve"
   style="font-style:normal;font-variant:normal;font-weight:normal;font-stretch:normal;font-size:119.467px;font-family:'Cascadia Code';-inkscape-font-specification:'Cascadia Code';letter-spacing:9.6px;fill:#ffffff;fill-opacity:1;stroke:#ffffff;stroke-width:6.4;stroke-linecap:round;stroke-linejoin:round;stroke-dasharray:none;stroke-opacity:1"
   x="67.412498"
   y="377.41678"
   id="text7"><tspan
     sodipodi:role="line"
     id="tspan7"
     style="font-style:normal;font-variant:normal;font-weight:normal;font-stretch:normal;font-size:119.467px;font-family:'Cascadia Code';-inkscape-font-specification:'Cascadia Code';letter-spacing:9.6px;fill:#ffffff;stroke:#ffffff;stroke-width:6.4;stroke-linecap:round;stroke-linejoin:round;stroke-dasharray:none;stroke-opacity:1"
     x="67.412498"
     y="377.41678">RESX</tspan></text></svg>
