<?xml version="1.0" encoding="UTF-8" standalone="no"?>
<!-- Uploaded to: SVG Repo, www.svgrepo.com, Generator: SVG Repo Mixer Tools -->

<svg
   height="100"
   width="100"
   version="1.1"
   id="Layer_1"
   viewBox="0 0 64 64"
   xml:space="preserve"
   sodipodi:docname="icon.svg"
   inkscape:version="1.3.2 (091e20e, 2023-11-25, custom)"
   inkscape:export-filename="icon.png"
   inkscape:export-xdpi="122.88"
   inkscape:export-ydpi="122.88"
   xmlns:inkscape="http://www.inkscape.org/namespaces/inkscape"
   xmlns:sodipodi="http://sodipodi.sourceforge.net/DTD/sodipodi-0.dtd"
   xmlns:xlink="http://www.w3.org/1999/xlink"
   xmlns="http://www.w3.org/2000/svg"
   xmlns:svg="http://www.w3.org/2000/svg"><defs
   id="defs7"><linearGradient
     id="linearGradient8"
     inkscape:collect="always"><stop
       style="stop-color:#ffffff;stop-opacity:1;"
       offset="0"
       id="stop8" /><stop
       style="stop-color:#000000;stop-opacity:0;"
       offset="1"
       id="stop9" /></linearGradient><linearGradient
     inkscape:collect="always"
     xlink:href="#linearGradient8"
     id="linearGradient9"
     x1="82.671387"
     y1="336"
     x2="365.32861"
     y2="336"
     gradientUnits="userSpaceOnUse" /></defs><sodipodi:namedview
   id="namedview7"
   pagecolor="#ffffff"
   bordercolor="#000000"
   borderopacity="0.25"
   inkscape:showpageshadow="2"
   inkscape:pageopacity="0.0"
   inkscape:pagecheckerboard="0"
   inkscape:deskcolor="#d1d1d1"
   inkscape:zoom="4.555"
   inkscape:cx="49.615807"
   inkscape:cy="31.94292"
   inkscape:window-width="1920"
   inkscape:window-height="1166"
   inkscape:window-x="-11"
   inkscape:window-y="-11"
   inkscape:window-maximized="1"
   inkscape:current-layer="Layer_1"
   showgrid="false" />






<path
   style="fill:#e2e5e7;stroke-width:0.1"
   d="M 19.2,6.4 C 17.44,6.4 16,7.84 16,9.6 v 44.8 c 0,1.76 1.44,3.2 3.2,3.2 h 32 c 1.76,0 3.2,-1.44 3.2,-3.2 V 19.2 L 41.6,6.4 Z"
   id="path1" /><path
   style="fill:#b0b7bd;stroke-width:0.1"
   d="m 44.8,19.2 h 9.6 L 41.6,6.4 V 16 c 0,1.76 1.44,3.2 3.2,3.2 z"
   id="path2" /><polygon
   style="fill:#cad1d8"
   points="480,224 384,128 480,128 "
   id="polygon2"
   transform="matrix(0.1,0,0,0.1,6.4,6.4)" /><path
   style="fill:#8bc34a;fill-opacity:1;stroke-width:0.1"
   d="m 48,48 c 0,0.88 -0.72,1.6 -1.6,1.6 H 11.2 C 10.32,49.6 9.6,48.88 9.6,48 V 32 c 0,-0.88 0.72,-1.6 1.6,-1.6 h 35.2 c 0.88,0 1.6,0.72 1.6,1.6 z"
   id="path3" /><path
   style="fill:#cad1d8;stroke-width:0.1"
   d="M 46.4,49.6 H 16 v 1.6 h 30.4 c 0.88,0 1.6,-0.72 1.6,-1.6 V 48 c 0,0.88 -0.72,1.6 -1.6,1.6 z"
   id="path7" /><text
   xml:space="preserve"
   style="font-style:normal;font-variant:normal;font-weight:200;font-stretch:normal;font-size:11.9467px;font-family:'Cascadia Code';-inkscape-font-specification:'Cascadia Code Ultra-Light';letter-spacing:0.96px;fill:#ffffff;fill-opacity:1;stroke:#ffffff;stroke-width:1.088;stroke-linecap:round;stroke-linejoin:round;stroke-dasharray:none;stroke-dashoffset:0;stroke-opacity:1"
   x="13.141235"
   y="44.141663"
   id="text7"><tspan
     sodipodi:role="line"
     id="tspan7"
     style="font-style:normal;font-variant:normal;font-weight:200;font-stretch:normal;font-size:11.9467px;font-family:'Cascadia Code';-inkscape-font-specification:'Cascadia Code Ultra-Light';letter-spacing:0.96px;fill:#ffffff;stroke:#ffffff;stroke-width:1.088;stroke-linecap:round;stroke-linejoin:round;stroke-dasharray:none;stroke-dashoffset:0;stroke-opacity:1;fill-opacity:1"
     x="13.141235"
     y="44.141663">RESX</tspan></text></svg>
