<?xml version="1.0" encoding="UTF-8" standalone="no"?>
<svg
   width="48"
   height="48"
   viewBox="0 0 48 48"
   fill="none"
   version="1.1"
   id="svg1"
   sodipodi:docname="icon.svg"
   inkscape:version="1.3.2 (091e20e, 2023-11-25, custom)"
   inkscape:export-filename="icon.png"
   inkscape:export-xdpi="256"
   inkscape:export-ydpi="256"
   xmlns:inkscape="http://www.inkscape.org/namespaces/inkscape"
   xmlns:sodipodi="http://sodipodi.sourceforge.net/DTD/sodipodi-0.dtd"
   xmlns="http://www.w3.org/2000/svg"
   xmlns:svg="http://www.w3.org/2000/svg">
  <defs
     id="defs1" />
  <sodipodi:namedview
     id="namedview1"
     pagecolor="#ffffff"
     bordercolor="#000000"
     borderopacity="0.25"
     inkscape:showpageshadow="2"
     inkscape:pageopacity="0.0"
     inkscape:pagecheckerboard="0"
     inkscape:deskcolor="#d1d1d1"
     inkscape:zoom="13.243521"
     inkscape:cx="22.614832"
     inkscape:cy="25.257634"
     inkscape:window-width="1920"
     inkscape:window-height="1166"
     inkscape:window-x="-11"
     inkscape:window-y="-11"
     inkscape:window-maximized="1"
     inkscape:current-layer="svg1" />
  <path
     d="M 12.984375,4 C 10.783866,4 9,5.90279 9,8.25 v 31.5 C 9,42.0972 10.783866,44 12.984375,44 h 22.03125 C 37.216125,44 39,42.0972 39,39.75 V 18.4142 c 0,-0.5967 -0.222282,-1.169 -0.617812,-1.591 L 26.97825,4.65901 C 26.582625,4.23705 26.046094,4 25.486688,4 Z m 21.780187,12.5 h -7.248937 c -0.64725,0 -1.171875,-0.5596 -1.171875,-1.25 V 7.51777 Z"
     fill="#212121"
     id="path1"
     sodipodi:nodetypes="sssssssccsscsscc"
     style="fill:#8bc34a;fill-opacity:1;stroke-width:0.968246" />
  <rect
     style="fill:#54762c;fill-opacity:1;stroke:none;stroke-width:1.29585;stroke-opacity:0.443137"
     id="rect1"
     width="27"
     height="11"
     x="15"
     y="27"
     rx="1.9285715"
     ry="2" />
  <text
     xml:space="preserve"
     style="font-style:normal;font-variant:normal;font-weight:normal;font-stretch:normal;font-size:10.8346px;font-family:Consolas;-inkscape-font-specification:Consolas;fill:#f2f2f2;fill-opacity:1;stroke:none;stroke-width:0.902879;stroke-opacity:0.443137"
     x="15.779317"
     y="36.444176"
     id="text1"
     transform="scale(1.0149834,0.98523779)"><tspan
       sodipodi:role="line"
       id="tspan1"
       x="15.779317"
       y="36.444176"
       style="fill:#f2f2f2;stroke-width:0.902879">RESX</tspan></text>
</svg>
